<svg width="1364" height="603" viewBox="0 0 1364 603" fill="none" xmlns="http://www.w3.org/2000/svg">
<path opacity="0.025641" d="M543.912 363.374C534.913 353.261 524.617 343.063 514.268 332.812C512.082 330.647 509.894 328.479 507.715 326.31C495.212 313.861 483.012 301.339 473.268 288.76C453.796 263.623 444.157 238.29 461.605 212.92C479.073 187.521 516.351 171.83 560.855 160.243C591.216 152.338 624.88 146.357 657.849 140.498C673.215 137.768 688.43 135.065 703.089 132.206C784.398 116.349 867.855 103.452 949.897 117.735C993.739 125.368 1037.23 136.638 1073.74 152.009C1110.25 167.379 1139.72 186.828 1155.62 210.819C1170.92 233.899 1163.67 256.828 1149.74 280.08C1144.26 289.208 1137.78 298.364 1131.24 307.584C1129.46 310.099 1127.67 312.619 1125.9 315.144C1117.65 326.921 1109.76 338.812 1104.26 350.857C1097.38 365.932 1094.25 382.281 1091.92 398.79C1091.3 403.196 1090.74 407.612 1090.18 412.019C1088.63 424.135 1087.09 436.177 1084.4 447.735C1077.06 479.232 1061.18 507.029 1013.31 522.466C916.869 553.56 795.92 513.497 700.424 481.139C626.082 455.948 587.836 412.857 549.046 369.154C547.337 367.228 545.627 365.301 543.912 363.374Z" stroke="url(#paint0_linear_2986_1356)" stroke-opacity="0.2"/>
<path opacity="0.0512821" d="M528.017 352.344C519.974 341.98 510.644 331.492 501.267 320.953C499.287 318.726 497.304 316.498 495.331 314.268C484.009 301.469 472.997 288.609 464.443 275.764C455.892 262.922 449.81 250.113 448.334 237.418C446.858 224.728 449.98 212.126 459.888 199.702C479.707 174.847 518.405 160.269 563.934 150.001C594.993 142.997 629.172 138.01 662.645 133.126C678.244 130.85 693.69 128.596 708.595 126.171C791.274 112.719 875.828 102.285 956.428 118.955C999.498 127.864 1041.88 140.392 1076.9 156.812C1111.92 173.232 1139.52 193.513 1153.16 217.925C1166.27 241.409 1156.9 264.09 1140.8 286.905C1134.49 295.86 1127.15 304.814 1119.76 313.83C1117.75 316.29 1115.73 318.754 1113.73 321.223C1104.39 332.742 1095.4 344.385 1088.78 356.253C1080.5 371.105 1075.85 387.34 1071.98 403.759C1070.95 408.141 1069.97 412.535 1069 416.919C1066.32 428.972 1063.66 440.953 1059.89 452.415C1049.62 483.652 1031.17 510.95 981.903 524.965C882.68 553.194 765.63 509.634 673.295 474.523C601.416 447.191 567.256 403.046 532.604 358.267C531.077 356.293 529.549 354.319 528.017 352.344Z" stroke="url(#paint1_linear_2986_1356)" stroke-opacity="0.2"/>
<path opacity="0.0769231" d="M513.027 341.223C505.963 330.637 497.624 319.888 489.245 309.088C487.475 306.807 485.704 304.523 483.942 302.239C473.831 289.126 464.038 275.962 456.698 262.887C449.359 249.815 444.485 236.85 444.197 224.133C443.909 211.421 448.203 198.928 459.259 186.811C481.376 162.568 521.388 149.143 567.816 140.224C599.489 134.139 634.089 130.161 667.972 126.265C683.762 124.449 699.397 122.651 714.507 120.666C798.33 109.657 883.748 101.715 962.686 120.726C1004.87 130.885 1046.02 144.639 1079.46 162.062C1112.89 179.486 1138.56 200.544 1149.88 225.31C1160.78 249.134 1149.31 271.505 1131.1 293.821C1123.95 302.578 1115.79 311.304 1107.57 320.091C1105.33 322.489 1103.08 324.89 1100.85 327.298C1090.45 338.527 1080.38 349.89 1072.67 361.548C1063.01 376.137 1056.85 392.214 1051.45 408.497C1050.01 412.843 1048.62 417.202 1047.24 421.552C1043.44 433.51 1039.66 445.396 1034.83 456.732C1021.66 487.623 1000.68 514.346 950.163 526.9C848.427 552.185 735.599 505.249 646.677 467.481C577.457 438.082 547.474 393.005 517.055 347.273C515.714 345.257 514.373 343.24 513.027 341.223Z" stroke="url(#paint2_linear_2986_1356)" stroke-opacity="0.2"/>
<path opacity="0.102564" d="M498.947 330.038C492.881 319.257 485.557 308.278 478.199 297.246C476.645 294.917 475.09 292.585 473.544 290.252C464.672 276.86 456.123 263.43 450.016 250.16C443.911 236.894 440.256 223.807 441.156 211.103C442.056 198.404 447.511 186.055 459.685 174.277C484.039 150.714 525.255 138.479 572.455 130.933C604.653 125.785 639.579 122.826 673.781 119.928C689.719 118.578 705.499 117.241 720.774 115.702C805.511 107.164 891.558 101.736 968.615 123.037C1009.79 134.418 1049.6 149.36 1081.36 167.739C1113.13 186.119 1136.78 207.896 1145.77 232.949C1150.09 244.991 1148.88 256.513 1144.04 267.755C1139.19 278.999 1130.73 289.939 1120.61 300.803C1112.66 309.339 1103.69 317.815 1094.66 326.349C1092.2 328.677 1089.73 331.009 1087.28 333.348C1075.84 344.257 1064.73 355.309 1055.93 366.724C1044.92 381.01 1037.27 396.885 1030.35 412.988C1028.51 417.286 1026.72 421.598 1024.93 425.902C1020.02 437.732 1015.14 449.49 1009.25 460.669C993.212 491.13 969.761 517.205 918.137 528.263C814.167 550.533 705.872 500.349 620.605 460.029C554.234 428.644 528.508 382.757 502.405 336.198C501.254 334.145 500.103 332.092 498.947 330.038Z" stroke="url(#paint3_linear_2986_1356)" stroke-opacity="0.2"/>
<path opacity="0.128205" d="M485.79 318.814C480.739 307.869 474.45 296.689 468.133 285.457C466.799 283.085 465.463 280.711 464.138 278.336C456.53 264.703 449.248 251.042 444.391 237.614C439.534 224.19 437.108 211.018 439.194 198.361C441.279 185.708 447.878 173.537 461.137 162.131C487.662 139.312 529.969 128.301 577.81 122.149C610.446 117.952 645.602 116.02 680.028 114.129C696.07 113.248 711.954 112.375 727.35 111.286C812.769 105.244 899.209 102.346 974.174 125.877C1014.23 138.45 1052.59 154.539 1082.59 173.823C1112.6 193.11 1134.17 215.545 1140.81 240.817C1144 252.963 1141.71 264.43 1135.82 275.514C1129.94 286.601 1120.47 297.277 1109.34 307.83C1100.6 316.122 1090.85 324.323 1081.04 332.582C1078.36 334.834 1075.68 337.09 1073.01 339.354C1060.57 349.912 1048.44 360.623 1038.59 371.765C1026.26 385.709 1017.13 401.337 1008.73 417.215C1006.48 421.453 1004.29 425.708 1002.1 429.953C996.093 441.623 990.119 453.222 983.197 464.213C964.334 494.161 938.477 519.516 885.884 529.046C779.967 548.239 676.505 494.945 595.126 452.183C531.783 418.898 510.383 372.327 488.667 325.068C487.71 322.984 486.752 320.899 485.79 318.814Z" stroke="url(#paint4_linear_2986_1356)" stroke-opacity="0.2"/>
<path opacity="0.153846" d="M473.557 307.581C469.535 296.502 464.3 285.152 459.041 273.75C457.93 271.343 456.818 268.933 455.717 266.522C449.393 252.685 443.399 238.831 439.803 225.28C436.208 211.735 435.016 198.513 438.281 185.938C441.545 173.366 449.272 161.405 463.579 150.402C492.202 128.391 535.482 118.635 583.834 113.893C616.819 110.659 652.108 109.76 686.664 108.881C702.766 108.471 718.709 108.065 734.185 107.429C820.051 103.899 906.647 103.538 979.313 129.236C1018.14 142.966 1054.94 160.157 1083.1 180.294C1111.27 200.435 1130.71 223.468 1134.97 248.89C1137.02 261.107 1133.67 272.489 1126.75 283.385C1119.84 294.284 1109.38 304.668 1097.29 314.881C1087.78 322.905 1077.28 330.809 1066.71 338.768C1063.83 340.939 1060.94 343.114 1058.06 345.297C1044.65 355.476 1031.54 365.816 1020.66 376.654C1007.05 390.217 996.468 405.556 986.59 421.167C983.953 425.333 981.367 429.517 978.787 433.693C971.693 445.171 964.643 456.578 956.704 467.351C935.069 496.705 906.878 521.269 853.461 529.245C745.889 545.308 647.545 489.051 570.275 443.963C510.133 408.869 493.116 361.741 475.847 313.912C475.085 311.803 474.323 309.692 473.557 307.581Z" stroke="url(#paint5_linear_2986_1356)" stroke-opacity="0.2"/>
<path opacity="0.179487" d="M462.244 296.366C459.263 285.183 455.095 273.694 450.908 262.154C450.024 259.717 449.139 257.278 448.264 254.839C443.242 240.835 438.551 226.825 436.227 213.19C433.903 199.559 433.948 186.323 438.383 173.863C442.816 161.406 451.65 149.688 466.966 139.119C497.608 117.976 541.743 109.502 590.472 106.184C623.714 103.92 659.04 104.058 693.631 104.192C709.749 104.255 725.708 104.317 741.222 104.136C827.3 103.127 913.814 105.305 983.981 133.098C1021.47 147.948 1056.62 166.195 1082.86 187.13C1109.1 208.069 1126.36 231.637 1128.24 257.142C1129.15 269.398 1124.73 280.663 1116.81 291.342C1108.89 302.023 1097.48 312.087 1084.44 321.931C1074.2 329.665 1062.98 337.251 1051.68 344.889C1048.6 346.973 1045.51 349.06 1042.43 351.156C1028.09 360.928 1014.02 370.87 1002.15 381.373C987.287 394.519 975.29 409.527 963.966 424.826C960.944 428.91 957.971 433.013 955.004 437.107C946.847 448.361 938.741 459.546 929.805 470.071C905.458 498.75 875.009 522.456 820.917 528.856C711.987 541.744 619.031 482.679 546.082 435.389C489.304 398.581 476.716 351.024 463.939 302.755C463.376 300.626 462.812 298.496 462.244 296.366Z" stroke="url(#paint6_linear_2986_1356)" stroke-opacity="0.2"/>
<path opacity="0.205128" d="M451.847 285.194C449.914 273.939 446.825 262.342 443.723 250.695C443.068 248.236 442.412 245.774 441.766 243.313C438.059 229.181 434.684 215.054 433.637 201.37C432.59 187.691 433.872 174.476 439.464 162.165C445.055 149.855 454.971 138.412 471.255 128.307C503.831 108.09 548.699 100.921 597.672 99.0361C631.08 97.7502 666.345 98.923 700.876 100.072C716.966 100.607 732.897 101.136 748.407 101.41C834.461 102.926 920.654 107.637 988.129 137.449C1024.18 153.378 1057.58 172.63 1081.82 194.305C1106.07 215.985 1121.1 240.025 1120.6 265.546C1120.36 277.808 1114.9 288.928 1105.99 299.36C1097.08 309.794 1084.74 319.509 1070.81 328.958C1059.86 336.382 1047.94 343.628 1035.94 350.925C1032.67 352.915 1029.39 354.909 1026.12 356.911C1010.89 366.249 995.912 375.765 983.072 385.906C967.003 398.598 953.62 413.234 940.882 428.181C937.482 432.17 934.129 436.18 930.784 440.181C921.587 451.181 912.447 462.114 902.54 472.362C875.546 500.288 842.923 523.069 788.305 527.875C678.317 537.553 591.006 475.843 522.577 426.479C469.317 388.059 461.191 340.201 452.943 291.625C452.579 289.482 452.215 287.338 451.847 285.194Z" stroke="url(#paint7_linear_2986_1356)" stroke-opacity="0.2"/>
<path opacity="0.230769" d="M442.368 274.092C441.49 262.796 439.489 251.124 437.479 239.402C437.054 236.927 436.63 234.45 436.215 231.973C433.834 217.752 431.783 203.545 432.016 189.849C432.249 176.159 434.764 163.001 441.498 150.87C448.232 138.742 459.203 127.605 476.409 117.991C510.83 98.7567 556.306 92.9128 605.389 92.4658C638.871 92.1609 673.979 94.3659 708.355 96.525C724.373 97.531 740.233 98.5271 755.695 99.2547C841.49 103.292 927.125 110.523 991.722 142.272C1026.24 159.236 1057.79 179.44 1079.97 201.797C1102.17 224.158 1114.93 248.604 1112.04 274.074C1110.65 286.312 1104.17 297.256 1094.29 307.412C1084.42 317.571 1071.19 326.911 1056.39 335.939C1044.77 343.031 1032.19 349.918 1019.52 356.853C1016.07 358.745 1012.61 360.64 1009.16 362.544C993.069 371.422 977.227 380.486 963.457 390.237C946.223 402.44 931.491 416.664 917.374 431.217C913.606 435.101 909.883 439.007 906.168 442.905C895.956 453.62 885.807 464.269 874.956 474.214C845.39 501.31 810.683 523.104 755.69 526.302C644.947 532.743 563.522 468.557 499.799 417.256C450.203 377.327 446.56 329.297 442.862 280.546C442.699 278.396 442.535 276.244 442.368 274.092Z" stroke="url(#paint8_linear_2986_1356)" stroke-opacity="0.2"/>
<path opacity="0.25641" d="M433.79 263.089C433.969 251.782 433.061 240.069 432.149 228.304C431.957 225.82 431.764 223.333 431.581 220.847C430.532 206.576 429.812 192.329 431.324 178.658C432.836 164.993 436.577 151.926 444.437 140.009C452.294 128.094 464.291 117.294 482.372 108.198C518.543 89.999 564.502 85.4961 613.559 86.4885C647.024 87.1655 681.877 90.3965 716.005 93.5604C731.907 95.0346 747.651 96.4942 763.025 97.674C848.325 104.22 933.166 113.952 994.708 147.551C1027.59 165.503 1057.21 186.604 1077.28 209.581C1097.35 232.562 1107.81 257.349 1102.55 282.702C1100.02 294.882 1092.51 305.622 1081.71 315.475C1070.9 325.33 1056.82 334.27 1041.19 342.851C1028.92 349.593 1015.72 356.102 1002.42 362.656C998.794 364.444 995.161 366.235 991.537 368.035C974.641 376.43 957.973 385.017 943.31 394.351C924.96 406.032 908.919 419.805 893.461 433.924C889.336 437.692 885.253 441.484 881.18 445.267C869.98 455.668 858.85 466.006 847.084 475.618C815.027 501.81 778.331 522.557 723.115 524.139C611.923 527.325 536.607 460.84 477.766 407.742C431.968 366.414 432.818 318.342 433.68 269.549C433.718 267.397 433.756 265.243 433.79 263.089Z" stroke="url(#paint9_linear_2986_1356)" stroke-opacity="0.2"/>
<path opacity="0.282051" d="M426.107 252.211C427.342 240.926 427.53 229.202 427.719 217.427C427.759 214.94 427.798 212.451 427.848 209.964C428.134 195.681 428.746 181.431 431.534 167.823C434.321 154.22 439.279 141.278 448.242 129.607C457.202 117.938 470.193 107.505 489.098 98.9505C526.919 81.8376 573.234 78.688 622.131 81.117C655.486 82.7741 689.989 87.0223 723.774 91.1821C739.517 93.1205 755.104 95.0396 770.346 96.6685C854.918 105.706 938.732 117.911 997.049 153.268C1028.21 172.159 1055.81 194.1 1073.71 217.633C1091.6 241.17 1099.74 266.232 1092.11 291.4C1088.45 303.493 1079.95 313.999 1068.24 323.522C1056.52 333.047 1041.62 341.562 1025.22 349.673C1012.33 356.046 998.539 362.159 984.65 368.314C980.861 369.993 977.065 371.675 973.279 373.367C955.621 381.255 938.173 389.342 922.658 398.233C903.242 409.36 885.936 422.644 869.18 436.29C864.708 439.932 860.276 443.599 855.855 447.258C843.699 457.317 831.618 467.314 818.97 476.568C784.509 501.785 745.926 521.427 690.64 521.388C579.306 521.31 510.307 452.711 456.507 397.959C414.632 355.344 419.973 307.36 425.394 258.658C425.633 256.51 425.872 254.361 426.107 252.211Z" stroke="url(#paint10_linear_2986_1356)" stroke-opacity="0.2"/>
<path opacity="0.307692" d="M419.311 241.482C421.598 230.249 422.881 218.548 424.17 206.794C424.442 204.312 424.714 201.828 424.997 199.345C426.617 185.09 428.559 170.877 432.616 157.367C436.671 143.862 442.832 131.082 452.875 119.687C462.915 108.295 476.863 98.2568 496.541 90.269C535.907 74.289 582.451 72.5014 631.053 76.3603C664.207 78.9928 698.265 84.2464 731.615 89.3909C747.155 91.7881 762.542 94.1615 777.611 96.235C861.222 107.739 943.779 122.384 998.711 159.401C1028.06 179.179 1053.58 201.899 1069.25 225.924C1084.92 249.953 1090.7 275.224 1080.74 300.14C1075.94 312.114 1066.47 322.358 1053.89 331.524C1041.3 340.693 1025.62 348.759 1008.49 356.378C995.021 362.365 980.675 368.065 966.229 373.805C962.289 375.37 958.341 376.939 954.402 378.517C936.031 385.877 917.851 393.441 901.527 401.866C881.097 412.409 862.574 425.166 844.566 438.303C839.76 441.809 834.992 445.341 830.234 448.865C817.155 458.554 804.156 468.183 790.662 477.054C753.891 501.227 713.527 519.709 658.324 518.05C547.155 514.708 484.661 444.184 436.05 387.929C398.213 344.143 408.031 296.376 417.996 247.899C418.435 245.761 418.875 243.622 419.311 241.482Z" stroke="url(#paint11_linear_2986_1356)" stroke-opacity="0.2"/>
<path opacity="0.333333" d="M413.375 230.93C416.709 219.78 419.083 208.134 421.469 196.434C421.972 193.963 422.477 191.49 422.99 189.019C425.94 174.831 429.209 160.692 434.523 147.318C439.835 133.948 447.183 121.362 458.28 110.275C469.373 99.1913 484.241 89.5756 504.637 82.1761C545.439 67.3729 592.084 66.9519 640.257 72.23C673.12 75.8307 706.639 82.0753 739.462 88.1902C754.757 91.0397 769.901 93.861 784.757 96.3735C867.179 110.313 948.251 127.357 999.646 165.932C1027.11 186.543 1050.47 209.979 1063.87 234.431C1077.28 258.887 1080.69 284.297 1068.41 308.896C1062.5 320.718 1052.08 330.672 1038.66 339.457C1025.23 348.245 1008.82 355.841 990.994 362.947C976.988 368.53 962.128 373.803 947.165 379.111C943.085 380.559 938.996 382.009 934.916 383.47C915.882 390.281 897.02 397.302 879.931 405.236C858.544 415.166 838.854 427.364 819.643 439.954C814.516 443.315 809.425 446.702 804.344 450.082C790.378 459.374 776.497 468.609 762.192 477.072C723.211 500.134 681.178 517.407 626.211 514.132C515.513 507.536 459.697 435.281 416.408 377.676C382.712 332.838 396.982 285.419 411.463 237.298C412.101 235.177 412.74 233.054 413.375 230.93Z" stroke="url(#paint12_linear_2986_1356)" stroke-opacity="0.2"/>
<path opacity="0.358974" d="M408.286 220.577C412.657 209.542 416.116 197.983 419.591 186.369C420.325 183.916 421.06 181.461 421.804 179.008C426.075 164.926 430.661 150.901 437.219 137.698C443.774 124.5 452.291 112.143 464.412 101.393C476.528 90.647 492.276 81.4803 513.333 74.6893C555.459 61.1036 602.076 62.0501 649.689 68.733C682.169 73.2919 715.057 80.5101 747.263 87.5787C762.271 90.8727 777.131 94.1342 791.733 97.0788C872.739 113.415 952.104 132.812 999.822 172.838C1025.32 194.226 1046.46 218.314 1057.56 243.126C1068.66 267.94 1069.7 293.422 1055.12 317.637C1048.12 329.277 1036.78 338.915 1022.55 347.294C1008.32 355.676 991.226 362.781 972.76 369.354C958.252 374.52 942.92 379.349 927.483 384.211C923.272 385.537 919.053 386.866 914.841 388.205C895.197 394.449 875.705 400.908 857.897 408.331C835.612 417.62 814.809 429.223 794.449 441.233C789.014 444.439 783.613 447.672 778.224 450.899C763.409 459.768 748.683 468.584 733.607 476.617C692.524 498.505 648.937 514.519 594.358 509.638C484.437 499.808 435.451 426.02 397.601 367.223C368.14 321.455 386.824 274.512 405.782 226.88C406.617 224.781 407.454 222.68 408.286 220.577Z" stroke="url(#paint13_linear_2986_1356)" stroke-opacity="0.2"/>
<path opacity="0.384615" d="M404.032 210.451C409.427 199.561 413.961 188.12 418.517 176.624C419.479 174.196 420.442 171.765 421.414 169.337C426.996 155.4 432.887 141.526 440.67 128.531C448.452 115.54 458.115 103.446 471.227 93.0632C484.335 82.684 500.919 73.9914 522.58 67.8275C565.914 55.4964 612.374 57.8076 659.295 65.8767C691.304 71.3813 723.471 79.5534 754.972 87.5562C769.652 91.2857 784.188 94.9783 798.495 98.3472C877.863 117.036 955.303 138.732 999.213 180.099C1022.68 202.204 1041.53 226.879 1050.3 251.983C1059.07 277.088 1057.73 302.572 1040.9 326.338C1024.72 349.199 991.959 363.52 953.809 375.58C938.838 380.312 923.077 384.685 907.207 389.088C902.878 390.29 898.54 391.493 894.208 392.707C874.007 398.366 853.938 404.245 835.461 411.136C812.338 419.759 790.479 430.737 769.025 442.133C763.299 445.175 757.604 448.245 751.921 451.309C736.296 459.733 720.767 468.105 704.96 475.685C661.886 496.34 616.867 511.052 562.826 504.579C453.985 491.541 411.962 416.425 379.657 356.596C354.51 310.023 377.559 263.684 400.942 216.671C401.973 214.599 403.004 212.526 404.032 210.451Z" stroke="url(#paint14_linear_2986_1356)" stroke-opacity="0.2"/>
<path opacity="0.410256" d="M400.582 200.575C406.987 189.859 412.582 178.568 418.206 167.221C419.394 164.825 420.583 162.426 421.781 160.029C428.657 146.274 435.837 132.59 444.826 119.839C453.813 107.09 464.596 95.2925 478.666 85.3049C492.73 75.3211 510.105 67.1264 532.311 61.6064C576.733 50.5636 622.908 54.2329 669.008 63.6658C700.458 70.1009 731.815 79.2042 762.525 88.1194C776.837 92.2741 791.007 96.3879 804.981 100.172C882.495 121.161 957.796 145.096 997.778 187.692C1019.14 210.453 1035.67 235.647 1042.08 260.974C1048.49 286.302 1044.77 311.719 1025.74 334.97C1007.43 357.336 973.367 370.679 934.149 381.602C918.756 385.889 902.608 389.794 886.348 393.726C881.913 394.799 877.469 395.873 873.03 396.958C852.328 402.018 831.737 407.3 812.641 413.64C788.744 421.574 765.89 431.895 743.401 442.647C737.398 445.517 731.424 448.416 725.462 451.309C709.072 459.263 692.781 467.169 676.288 474.275C631.339 493.641 585.013 507.01 531.66 498.963C424.198 482.754 389.253 406.516 362.581 345.819C341.818 298.568 369.17 252.96 396.916 206.695C398.138 204.657 399.362 202.617 400.582 200.575Z" stroke="url(#paint15_linear_2986_1356)" stroke-opacity="0.2"/>
<path opacity="0.435897" d="M397.91 190.971C405.306 180.459 411.949 169.349 418.625 158.182C420.035 155.824 421.447 153.463 422.867 151.104C431.019 137.57 439.47 124.113 449.64 111.64C469.963 86.7154 497.125 65.7523 542.462 56.0389C587.85 46.3146 633.613 51.3314 678.766 62.1021C709.57 69.45 740.032 79.4593 769.866 89.2621C783.77 93.8308 797.538 98.3546 811.14 102.543C886.585 125.776 959.541 151.884 995.486 195.59C1014.69 218.946 1028.84 244.589 1032.88 270.071C1036.91 295.551 1030.83 320.832 1009.64 343.504C989.252 365.315 953.979 377.641 913.802 387.398C898.03 391.229 881.54 394.655 864.934 398.105C860.405 399.046 855.866 399.989 851.331 400.942C830.185 405.388 809.128 410.06 789.466 415.831C764.86 423.053 741.074 432.691 717.611 442.768C711.349 445.458 705.112 448.178 698.889 450.892C681.778 458.355 664.77 465.773 647.634 472.386C600.934 490.409 553.427 502.398 500.91 492.8C395.124 473.466 367.35 396.317 346.385 334.916C330.064 287.116 361.646 242.364 393.677 196.975C395.089 194.975 396.501 192.974 397.91 190.971Z" stroke="url(#paint16_linear_2986_1356)" stroke-opacity="0.2"/>
<path opacity="0.461538" d="M395.999 181.663C404.366 171.383 412.037 160.484 419.747 149.528C421.376 147.214 423.006 144.898 424.645 142.584C434.051 129.307 443.748 116.114 455.072 103.955C477.705 79.6508 506.799 59.5091 552.981 51.1378C599.21 42.7583 644.435 49.1086 688.516 61.1872C718.59 69.4276 748.073 80.3154 776.95 90.9791C790.408 95.9491 803.735 100.871 816.928 105.453C890.099 130.865 960.509 159.074 992.318 203.77C1009.32 227.656 1021.05 253.679 1022.7 279.245C1024.35 304.81 1015.91 329.885 992.619 351.915C970.211 373.11 933.824 384.386 892.796 392.95C876.688 396.312 859.902 399.25 842.997 402.209C838.385 403.016 833.764 403.825 829.146 404.644C807.613 408.464 786.148 412.512 765.973 417.699C740.727 424.19 716.073 433.117 691.701 442.493C685.197 444.995 678.714 447.529 672.245 450.057C654.46 457.008 636.782 463.917 619.052 470.019C570.728 486.649 522.172 497.227 470.634 486.105C418.733 474.904 387.644 449.845 367.629 419.834C347.61 389.816 338.684 354.868 331.087 323.914C319.254 275.696 354.982 231.922 391.211 187.534C392.807 185.578 394.404 183.621 395.999 181.663Z" stroke="url(#paint17_linear_2986_1356)" stroke-opacity="0.2"/>
<path opacity="0.487179" d="M394.815 172.671C404.13 162.651 412.808 151.993 421.531 141.279C423.374 139.016 425.219 136.75 427.072 134.487C437.705 121.504 448.624 108.612 461.071 96.7985C485.952 73.1834 516.898 53.9184 563.801 46.9122C610.743 39.9002 655.305 47.566 698.194 60.9192C727.455 70.0293 755.878 81.7653 783.717 93.2605C796.693 98.6185 809.543 103.924 822.291 108.887C892.987 136.409 960.659 166.641 988.245 212.205C1002.99 236.555 1012.28 262.887 1011.53 288.467C1010.79 314.046 1000.02 338.847 974.691 360.173C950.32 380.693 912.918 390.887 871.152 398.236C854.753 401.122 837.714 403.564 820.556 406.023C815.876 406.693 811.186 407.365 806.498 408.048C784.637 411.232 762.823 414.645 742.191 419.234C716.373 424.976 690.92 433.167 665.706 441.816C658.977 444.124 652.266 446.464 645.57 448.799C627.16 455.219 608.86 461.601 590.583 467.175C540.766 482.368 491.295 491.504 440.88 478.889C390.107 466.185 361.405 440.254 344.222 409.698C327.035 379.135 321.387 343.973 316.693 312.839C309.38 264.334 349.157 221.66 389.485 178.393C391.262 176.487 393.04 174.58 394.815 172.671Z" stroke="url(#paint18_linear_2986_1356)" stroke-opacity="0.2"/>
<path opacity="0.512821" d="M394.324 164.019C404.562 154.287 414.222 143.899 423.935 133.455C425.987 131.249 428.041 129.041 430.103 126.835C441.935 114.181 454.044 101.625 467.58 90.1908C494.643 67.3302 527.357 48.9952 574.852 43.3732C622.379 37.7475 666.157 46.7075 707.735 61.2981C736.103 71.2529 763.387 83.8047 790.114 96.0999C802.572 101.831 814.908 107.506 827.177 112.837C895.203 142.393 959.951 174.564 983.24 220.87C1008.15 270.398 1010.47 327.124 955.866 368.256C929.598 388.044 891.282 397.128 848.893 403.241C832.246 405.642 815.003 407.581 797.638 409.534C792.901 410.067 788.156 410.6 783.411 411.145C761.282 413.683 739.179 416.452 718.147 420.43C691.828 425.407 665.645 432.841 639.658 440.738C632.723 442.846 625.803 444.986 618.899 447.121C599.914 452.993 581.041 458.83 562.268 463.861C511.093 477.574 460.844 485.244 411.69 471.173C362.185 457.001 335.948 430.27 321.643 399.252C307.336 368.228 304.982 332.949 303.203 301.719C300.433 253.061 344.151 211.603 388.467 169.578C390.419 167.726 392.373 165.873 394.324 164.019Z" stroke="url(#paint19_linear_2986_1356)" stroke-opacity="0.2"/>
<path opacity="0.538462" d="M394.501 155.723C405.633 146.306 416.249 136.217 426.925 126.072C429.18 123.929 431.438 121.783 433.703 119.641C446.702 107.351 459.969 95.1661 474.557 84.1425C503.727 62.1001 538.12 44.7457 586.078 40.5234C634.06 36.2991 676.932 46.5282 717.086 62.3157C744.483 73.0876 770.554 86.4205 796.093 99.4818C807.999 105.571 819.79 111.6 831.545 117.284C896.716 148.793 958.362 182.815 977.291 229.736C997.536 279.92 994.559 336.646 936.168 376.134C908.073 395.134 868.949 403.082 826.054 407.944C809.205 409.854 791.804 411.285 774.28 412.726C769.501 413.119 764.712 413.512 759.922 413.917C737.587 415.803 715.255 417.921 693.88 421.276C667.133 425.475 640.293 432.131 613.604 439.256C606.482 441.157 599.372 443.091 592.277 445.021C572.769 450.329 553.377 455.604 534.158 460.078C481.764 472.275 430.876 478.457 383.118 462.969C335.018 447.37 311.316 419.912 299.93 388.517C288.542 357.116 289.487 321.817 290.629 290.577C292.409 241.898 339.949 201.772 388.131 161.103C390.254 159.311 392.379 157.518 394.501 155.723Z" stroke="url(#paint20_linear_2986_1356)" stroke-opacity="0.2"/>
<path opacity="0.564103" d="M395.302 147.806C407.298 138.728 418.841 128.965 430.45 119.147C432.902 117.073 435.358 114.996 437.821 112.923C451.95 101.032 466.339 89.2505 481.94 78.6681C513.137 57.5056 549.114 41.1798 597.406 38.3688C645.71 35.5571 687.56 47.0267 726.178 63.9674C752.529 75.5268 777.315 89.6039 801.598 103.395C812.919 109.825 824.131 116.193 835.341 122.214C897.477 155.59 955.853 191.368 970.37 238.776C985.896 289.479 977.63 346.049 915.609 383.783C885.765 401.941 845.94 408.732 802.654 412.329C785.65 413.743 768.14 414.661 750.506 415.587C745.696 415.839 740.876 416.092 736.055 416.355C713.574 417.584 691.075 419.045 669.416 421.769C642.315 425.178 614.89 431.038 587.573 437.37C580.283 439.06 573.002 440.783 565.737 442.503C545.76 447.231 525.9 451.931 506.289 455.835C452.818 466.481 401.431 471.16 355.201 454.298C308.638 437.315 287.536 409.207 279.099 377.521C270.66 345.83 274.902 310.606 278.962 279.442C285.289 230.877 336.522 192.192 388.438 152.992C390.726 151.265 393.015 149.536 395.302 147.806Z" stroke="url(#paint21_linear_2986_1356)" stroke-opacity="0.2"/>
<path opacity="0.589744" d="M396.699 140.282C409.525 131.569 421.964 122.159 434.474 112.694C437.117 110.695 439.763 108.693 442.417 106.695C457.638 95.2336 473.11 83.8892 489.68 73.7773C522.82 53.5537 560.283 38.3017 608.776 36.91C657.271 35.5183 697.983 48.1965 734.959 66.2431C760.191 78.5581 783.625 93.3405 806.586 107.824C817.291 114.577 827.893 121.265 838.527 127.608C897.457 162.759 952.403 200.195 962.47 247.959C973.236 299.043 959.701 355.302 894.22 391.177C862.707 408.443 822.291 414.056 778.732 416.379C761.62 417.292 744.047 417.697 726.351 418.104C721.524 418.215 716.688 418.326 711.849 418.448C689.283 419.016 666.679 419.815 644.795 421.9C617.414 424.51 589.48 429.558 561.61 435.081C554.172 436.554 546.741 438.062 539.325 439.566C518.933 443.702 498.66 447.814 478.711 451.138C424.309 460.204 372.564 463.366 327.988 445.178C283.091 426.86 264.645 398.179 259.18 366.288C253.714 334.393 261.241 299.341 268.208 268.339C279.065 220.02 333.852 182.885 389.359 145.26C391.805 143.602 394.253 141.943 396.699 140.282Z" stroke="url(#paint22_linear_2986_1356)" stroke-opacity="0.2"/>
<path opacity="0.615385" d="M398.651 133.171C412.273 124.847 425.573 115.815 438.95 106.731C441.776 104.811 444.606 102.89 447.443 100.972C463.714 89.9723 480.226 79.096 497.721 69.4824C532.712 50.2542 571.559 36.1183 620.12 36.15C668.673 36.1818 708.136 50.0333 743.369 69.1356C767.414 82.1722 789.431 97.6189 811.005 112.755C821.065 119.813 831.029 126.803 841.057 133.451C896.62 170.279 947.987 209.27 953.576 257.259C959.554 308.584 940.784 364.379 872.022 398.294C838.926 414.619 798.031 419.039 754.318 420.082C737.143 420.493 719.557 420.381 701.847 420.269C697.016 420.238 692.176 420.208 687.333 420.188C664.745 420.094 642.097 420.228 620.049 421.67C592.463 423.473 564.097 427.695 535.749 432.393C528.185 433.647 520.623 434.934 513.076 436.219C492.326 439.752 471.695 443.264 451.462 445.999C396.278 453.459 344.318 455.096 301.518 435.634C258.41 416.031 242.668 386.857 240.191 354.848C237.713 322.837 248.505 288.053 258.359 257.298C273.719 209.358 331.909 173.874 390.855 137.929C393.453 136.344 396.053 134.759 398.651 133.171Z" stroke="url(#paint23_linear_2986_1356)" stroke-opacity="0.2"/>
<path opacity="0.641026" d="M401.123 126.488C415.503 118.575 429.628 109.946 443.836 101.266C446.838 99.432 449.843 97.5959 452.855 95.7638C470.132 85.2563 487.64 74.878 506.01 65.7894C542.757 47.6101 582.88 34.6296 631.378 36.085C679.857 37.5398 717.961 52.5261 751.354 72.6309C774.146 86.3531 794.686 102.421 814.816 118.169C824.203 125.512 833.501 132.786 842.896 139.719C894.94 178.125 942.586 218.563 943.683 266.645C944.857 318.072 920.902 373.248 849.048 405.109C814.459 420.447 773.197 423.661 729.45 423.422C712.26 423.328 694.708 422.701 677.033 422.07C672.211 421.898 667.381 421.725 662.546 421.563C639.998 420.807 617.369 420.278 595.217 421.071C567.501 422.064 538.782 425.448 510.034 429.308C502.363 430.339 494.692 431.403 487.036 432.464C465.983 435.384 445.052 438.287 424.59 440.425C368.773 446.258 316.742 446.366 275.835 425.684C234.634 404.854 221.639 375.266 222.155 343.227C222.672 311.186 236.7 276.767 249.414 246.342C269.235 198.913 330.669 165.178 392.892 131.011C395.635 129.505 398.38 127.997 401.123 126.488Z" stroke="url(#paint24_linear_2986_1356)" stroke-opacity="0.2"/>
<path opacity="0.666667" d="M404.064 120.247C419.163 112.767 434.074 104.564 449.073 96.3123C452.242 94.5689 455.415 92.8233 458.595 91.0819C476.83 81.0952 495.284 71.2435 514.481 62.7051C552.882 45.6252 594.173 33.8364 642.474 36.7117C690.746 39.5853 727.388 55.6649 758.85 76.7161C780.325 91.0858 799.332 107.731 817.961 124.046C826.65 131.655 835.257 139.192 843.994 146.393C892.375 186.27 936.172 228.043 932.775 276.088C929.141 327.476 900.065 381.882 825.316 411.6C789.33 425.907 747.814 427.907 704.151 426.386C686.994 425.788 669.525 424.647 651.934 423.499C647.135 423.186 642.327 422.872 637.513 422.568C615.066 421.153 592.518 419.961 570.323 420.103C542.554 420.282 513.559 422.819 484.491 425.832C476.735 426.636 468.975 427.474 461.23 428.309C439.934 430.608 418.758 432.893 398.124 434.429C341.827 438.619 289.866 437.198 250.964 415.354C211.783 393.354 201.568 363.436 205.078 331.453C208.588 299.471 225.813 265.509 241.353 235.498C265.581 188.71 330.091 156.819 395.42 124.523C398.301 123.099 401.183 121.674 404.064 120.247Z" stroke="url(#paint25_linear_2986_1356)" stroke-opacity="0.2"/>
<path opacity="0.692308" d="M407.441 114.461C423.217 107.435 438.873 99.6805 454.623 91.8799C457.951 90.2318 461.282 88.5815 464.62 86.9357C483.763 77.4971 503.115 68.1993 523.085 60.2346C563.034 44.3017 605.378 33.7372 653.351 38.025C701.285 42.3093 736.365 59.4377 765.808 81.3765C785.91 96.3544 803.332 113.531 820.41 130.368C828.376 138.222 836.268 146.002 844.322 153.451C888.908 194.689 928.736 237.683 920.855 285.559C912.425 336.767 878.305 390.254 800.866 417.745C763.581 430.982 721.927 431.761 678.468 428.962C661.39 427.862 644.052 426.211 626.591 424.549C621.828 424.095 617.056 423.641 612.278 423.197C589.994 421.125 567.588 419.274 545.411 418.766C517.665 418.13 488.474 419.814 459.165 421.97C451.345 422.546 443.517 423.155 435.706 423.762C414.223 425.433 392.862 427.095 372.111 428.024C315.488 430.558 263.742 427.613 226.95 404.668C189.896 381.561 182.486 351.394 188.98 319.554C195.474 287.719 215.85 254.307 234.173 224.793C262.742 178.775 330.152 148.815 398.408 118.479C401.418 117.141 404.43 115.802 407.441 114.461Z" stroke="url(#paint26_linear_2986_1356)" stroke-opacity="0.2"/>
<path opacity="0.717949" d="M411.206 109.145C427.617 102.59 443.975 95.3059 460.432 87.9777C463.91 86.4293 467.391 84.879 470.879 83.3332C490.877 74.4686 511.072 65.7503 531.761 58.3813C573.148 43.6396 616.43 34.329 663.943 40.0179C711.408 45.7011 744.83 63.8308 772.175 86.596C785.852 97.9822 797.998 110.52 809.614 123.232C813.842 127.859 818.003 132.512 822.141 137.14C829.361 145.214 836.513 153.214 843.842 160.87C884.511 203.355 920.263 247.452 907.92 295.027C894.717 345.917 855.646 398.337 775.73 423.525C737.249 435.654 695.571 435.21 652.434 431.141C635.481 429.542 618.32 427.385 601.038 425.213C596.325 424.62 591.602 424.027 586.872 423.443C564.812 420.721 542.611 418.216 520.513 417.058C492.866 415.61 463.559 416.436 434.089 417.73C426.226 418.076 418.352 418.454 410.495 418.832C388.885 419.871 367.397 420.905 346.588 421.224C289.793 422.095 238.403 417.633 203.821 393.653C168.995 369.504 164.408 339.17 173.87 307.561C183.33 275.959 206.8 243.19 227.856 214.253C260.689 169.131 330.813 141.185 401.809 112.892C404.941 111.644 408.074 110.395 411.206 109.145Z" stroke="url(#paint27_linear_2986_1356)" stroke-opacity="0.2"/>
<path opacity="0.74359" d="M415.32 104.306C432.319 98.2416 449.335 91.4471 466.455 84.6114C470.072 83.167 473.694 81.7208 477.321 80.2793C498.12 72.0131 519.103 63.8982 540.454 57.1453C583.166 43.6357 627.267 35.605 674.189 42.6798C721.056 49.7463 752.729 68.8273 777.901 92.3553C790.492 104.125 801.449 117 811.861 130.034C815.651 134.778 819.37 139.546 823.07 144.289C829.526 152.564 835.922 160.763 842.526 168.624C879.167 212.24 910.745 257.318 893.974 304.464C876.035 354.895 832.117 406.104 749.944 428.919C710.373 439.906 668.787 438.239 626.089 432.912C609.309 430.818 592.373 428.161 575.318 425.485C570.666 424.755 566.005 424.024 561.337 423.302C539.561 419.937 517.625 416.785 495.666 414.981C468.194 412.725 438.852 412.691 409.301 413.119C401.417 413.234 393.52 413.381 385.638 413.528C363.961 413.932 342.404 414.334 321.592 414.043C293.215 413.646 266.282 411.96 242.402 407.246C218.533 402.535 197.747 394.806 181.61 382.333C149.107 357.211 147.353 326.794 159.757 295.501C172.157 264.219 198.658 232.182 222.389 203.902C259.396 159.8 332.043 133.946 405.583 107.773C408.828 106.619 412.074 105.463 415.32 104.306Z" stroke="url(#paint28_linear_2986_1356)" stroke-opacity="0.2"/>
<path opacity="0.769231" d="M419.73 99.9541C437.273 94.397 454.899 88.1108 472.634 81.7863C476.381 80.4499 480.133 79.1119 483.89 77.7786C505.434 70.1334 527.147 62.6443 549.101 56.5261C593.021 44.2861 637.818 37.5578 684.021 45.9995C730.163 54.43 759.999 74.4096 782.931 98.6347C794.403 110.755 804.141 123.931 813.32 137.252C816.661 142.1 819.93 146.971 823.181 151.816C828.855 160.27 834.477 168.646 840.337 176.69C872.849 221.316 900.169 267.251 879.018 313.838C856.391 363.674 807.746 413.53 723.542 433.908C682.99 443.722 641.609 440.838 599.469 434.266C582.907 431.683 566.242 428.533 549.461 425.361C544.883 424.496 540.297 423.629 535.702 422.772C514.271 418.773 492.66 414.982 470.901 412.537C443.678 409.479 414.381 408.584 384.831 408.146C376.948 408.029 369.047 407.945 361.163 407.861C339.477 407.629 317.912 407.398 297.155 406.497C268.853 405.269 242.113 402.795 218.704 397.388C195.306 391.983 175.279 383.657 160.339 370.736C130.246 344.711 131.328 314.294 146.642 283.403C161.948 252.526 191.407 221.31 217.748 193.764C258.828 150.804 333.797 127.113 409.681 103.132C413.03 102.074 416.381 101.015 419.73 99.9541Z" stroke="url(#paint29_linear_2986_1356)" stroke-opacity="0.2"/>
<path opacity="0.794872" d="M424.396 96.0985C442.433 91.0633 460.623 85.3027 478.924 79.5067C482.791 78.282 486.663 77.0557 490.539 75.8344C512.768 68.8312 535.152 61.9885 557.649 56.5219C602.655 45.5854 648.027 40.1784 693.383 49.9641C738.674 59.7356 766.593 80.5588 787.222 105.414C797.544 117.851 806.036 131.293 813.957 144.864C816.84 149.802 819.649 154.761 822.443 159.694C827.32 168.303 832.152 176.834 837.253 185.04C865.548 230.554 888.536 277.221 863.061 323.121C835.809 372.225 782.571 420.592 696.567 438.476C655.145 447.09 614.085 442.995 572.616 435.197C556.318 432.132 539.97 428.498 523.508 424.838C519.018 423.84 514.519 422.84 510.01 421.849C488.982 417.227 467.755 412.808 446.256 409.729C419.358 405.877 390.186 404.125 360.717 402.822C352.856 402.474 344.974 402.158 337.108 401.843C315.474 400.976 293.959 400.113 273.315 398.605C245.165 396.549 218.691 393.294 195.819 387.208C172.955 381.124 153.741 372.224 140.038 358.891C112.435 332.036 116.347 301.702 134.53 271.297C152.701 240.911 185.037 210.599 213.915 183.864C258.958 142.164 336.043 120.701 414.063 98.9781C417.506 98.0193 420.952 97.06 424.396 96.0985Z" stroke="url(#paint30_linear_2986_1356)" stroke-opacity="0.2"/>
<path opacity="0.820513" d="M429.268 92.7452C447.75 88.2458 466.452 83.0265 485.269 77.7748C489.246 76.6652 493.227 75.5541 497.213 74.448C520.065 68.106 543.059 61.9286 566.037 57.1287C612.006 47.5259 657.826 43.4555 702.212 54.5586C746.528 65.6444 772.455 87.2541 790.725 112.67C799.869 125.39 807.092 139.06 813.735 152.844C816.151 157.859 818.493 162.893 820.822 167.901C824.888 176.642 828.917 185.305 833.245 193.649C857.246 239.925 875.84 287.196 846.113 332.285C814.31 380.522 756.622 427.267 669.055 442.607C626.879 449.996 586.252 444.702 545.568 435.698C529.579 432.16 513.592 428.052 497.495 423.914C493.104 422.786 488.705 421.656 484.295 420.534C463.728 415.302 442.944 410.267 421.762 406.562C395.262 401.927 366.295 399.323 336.989 397.157C329.171 396.579 321.33 396.033 313.504 395.487C291.98 393.987 270.575 392.495 250.099 390.384C222.179 387.505 196.044 383.479 173.771 376.73C151.504 369.984 133.155 360.534 120.725 346.827C95.6854 319.217 102.415 289.048 123.418 259.212C144.403 229.399 179.529 200.077 210.866 174.224C259.746 133.899 338.737 114.724 418.678 95.3184C422.207 94.4617 425.737 93.6046 429.268 92.7452Z" stroke="url(#paint31_linear_2986_1356)" stroke-opacity="0.2"/>
<path opacity="0.846154" d="M434.295 89.9001C453.172 85.9488 472.336 81.2849 491.618 76.5921C495.693 75.6005 499.772 74.6076 503.856 73.6198C527.27 67.9564 550.81 62.4613 574.206 58.3414C621.011 50.0988 667.155 47.3765 710.447 59.7669C732.078 65.9578 748.843 74.6401 762.18 84.9973C775.52 95.3575 785.456 107.415 793.396 120.38C801.337 133.348 807.272 147.209 812.617 161.169C814.561 166.247 816.429 171.342 818.287 176.412C821.531 185.26 824.746 194.03 828.288 202.49C847.93 249.402 862.081 297.147 828.183 341.301C791.916 388.54 729.936 433.533 641.048 446.287C598.233 452.43 558.152 445.951 518.365 435.767C502.728 431.765 487.147 427.194 471.458 422.59C467.179 421.335 462.891 420.077 458.592 418.827C438.542 413 418.257 407.362 397.451 403.042C371.423 397.637 342.739 394.187 313.676 391.165C305.924 390.359 298.145 389.584 290.381 388.81C269.027 386.681 247.789 384.563 227.538 381.855C199.924 378.161 174.199 373.374 152.586 365.981C130.977 358.59 113.544 348.617 102.418 334.573C80.0068 306.285 89.5341 276.363 113.301 247.177C137.044 218.02 174.861 189.767 208.571 164.869C261.155 126.03 341.834 109.195 423.478 92.1596C427.083 91.4075 430.689 90.655 434.295 89.9001Z" stroke="url(#paint32_linear_2986_1356)" stroke-opacity="0.2"/>
<path opacity="0.871795" d="M439.439 87.5652C458.659 84.1726 478.232 80.077 497.926 75.9559C502.088 75.085 506.255 74.2131 510.425 73.3464C534.336 68.377 558.359 63.5794 582.108 60.1507C629.621 53.2913 675.961 51.9249 718.04 65.5686C739.064 72.3857 754.994 81.5474 767.341 92.2786C779.691 103.012 788.485 115.341 795.2 128.518C801.917 141.698 806.548 155.712 810.582 169.808C812.049 174.936 813.438 180.079 814.82 185.196C817.232 194.128 819.623 202.981 822.37 211.533C837.6 258.952 847.271 307.041 809.294 350.14C768.663 396.252 702.561 439.369 612.596 449.5C569.26 454.38 529.836 446.735 491.055 435.399C475.813 430.943 460.681 425.921 445.444 420.865C441.287 419.485 437.123 418.103 432.946 416.73C413.468 410.322 393.738 404.098 373.365 399.174C347.878 393.013 319.558 388.728 290.817 384.858C283.15 383.826 275.454 382.823 267.773 381.823C246.647 379.071 225.636 376.334 205.666 373.035C178.434 368.537 153.191 363.002 132.297 354.986C111.405 346.97 94.9337 336.501 85.1414 322.159C75.2766 307.711 73.4197 293.098 77.3391 278.527C81.261 263.947 90.9629 249.432 104.18 235.221C130.616 206.8 171.023 179.693 207.013 155.817C263.157 118.571 345.302 104.124 428.425 89.5047C432.095 88.8592 435.767 88.2133 439.439 87.5652Z" stroke="url(#paint33_linear_2986_1356)" stroke-opacity="0.2"/>
<path opacity="0.897436" d="M444.648 85.7419C464.158 82.9174 484.086 79.4012 504.139 75.863C508.376 75.1154 512.619 74.3668 516.865 73.6235C541.207 69.3618 565.645 65.2749 589.683 62.547C637.774 57.0895 684.181 57.0831 724.931 71.9429C745.291 79.3675 760.342 88.9835 771.667 100.059C782.994 111.138 790.622 123.704 796.096 137.056C801.571 150.412 804.886 164.541 807.596 178.736C808.582 183.899 809.488 189.076 810.39 194.226C811.965 203.217 813.526 212.129 815.47 220.75C826.247 268.545 831.412 316.848 789.461 358.774C744.576 403.631 674.533 444.755 583.739 452.235C540.003 455.839 501.344 447.047 463.674 434.589C448.869 429.693 434.226 424.234 419.482 418.738C415.461 417.239 411.432 415.737 407.39 414.242C388.537 407.273 369.416 400.479 349.532 394.965C324.656 388.066 296.776 382.956 268.436 378.249C260.876 376.994 253.285 375.767 245.708 374.543C224.868 371.175 204.141 367.826 184.506 363.946C157.731 358.656 133.038 352.389 112.921 343.77C92.8046 335.152 77.3392 324.215 68.905 309.614C60.4086 294.906 59.9183 280.264 65.1933 265.83C70.4717 251.386 81.5164 237.175 96.0438 223.371C125.1 195.763 167.985 169.877 206.156 147.089C265.706 111.538 349.092 99.5182 433.466 87.356C437.192 86.819 440.92 86.2816 444.648 85.7419Z" stroke="url(#paint34_linear_2986_1356)" stroke-opacity="0.2"/>
<path opacity="0.923077" d="M449.865 84.4341C469.612 82.1854 489.841 79.2582 510.197 76.3127C514.498 75.6903 518.805 75.0671 523.114 74.4492C547.822 70.907 572.609 67.5419 596.869 65.5224C645.405 61.482 691.752 62.8358 731.06 78.8708C750.7 86.8825 764.831 96.9265 775.104 108.317C785.378 119.71 791.819 132.479 796.037 145.971C800.256 159.467 802.246 173.672 803.626 187.927C804.128 193.11 804.55 198.306 804.969 203.475C805.702 212.5 806.428 221.447 807.563 230.115C813.859 278.156 814.504 326.541 768.694 367.179C719.679 410.66 645.888 449.675 554.514 454.484C510.498 456.801 472.711 446.887 436.257 433.342C421.929 428.019 407.816 422.138 393.606 416.217C389.73 414.602 385.847 412.984 381.95 411.373C363.774 403.861 345.315 396.516 325.974 390.426C301.778 382.808 274.414 376.888 246.552 371.357C239.121 369.881 231.654 368.434 224.202 366.989C203.705 363.015 183.319 359.063 164.073 354.613C137.829 348.545 113.755 341.562 94.4701 332.366C75.1839 323.168 60.7658 311.795 53.7108 296.973C46.604 282.043 47.4807 267.413 54.0967 253.154C60.7171 238.886 73.0742 225.018 88.8721 211.658C120.468 184.939 165.714 160.346 205.963 138.708C268.755 104.95 353.153 95.3905 438.546 85.7184C442.318 85.2912 446.091 84.8638 449.865 84.4341Z" stroke="url(#paint35_linear_2986_1356)" stroke-opacity="0.2"/>
<path opacity="0.948718" d="M455.054 83.6386C474.984 81.9718 495.459 79.6417 516.062 77.2968C520.415 76.8014 524.775 76.3053 529.136 75.8146C554.141 73.0014 579.208 70.3675 603.624 69.0619C652.472 66.4497 698.632 69.1602 736.389 86.3263C755.255 94.9032 768.427 105.348 777.62 117.022C786.814 128.699 792.053 141.637 795.003 155.232C797.955 168.832 798.615 183.074 798.661 197.35C798.678 202.54 798.614 207.741 798.55 212.915C798.438 221.95 798.327 230.906 798.651 239.596C800.449 287.752 796.574 336.087 747.029 375.326C694.017 417.311 616.68 454.111 524.979 456.235C480.804 457.259 443.994 446.25 408.855 431.655C395.045 425.919 381.5 419.632 367.862 413.302C364.143 411.576 360.417 409.847 356.676 408.124C339.227 400.089 321.479 392.213 302.734 385.565C279.283 377.248 252.51 370.534 225.204 364.194C217.921 362.503 210.6 360.839 203.294 359.177C183.196 354.608 163.207 350.064 144.402 345.055C118.761 338.226 95.3715 330.547 76.972 320.798C58.57 311.047 45.2375 299.267 39.5791 284.264C33.8794 269.152 36.1201 254.571 44.0589 240.527C52.0032 226.473 65.639 212.986 82.664 200.108C116.714 174.351 164.196 151.118 206.412 130.689C272.274 98.8174 357.451 91.745 443.631 84.5893C447.437 84.2733 451.245 83.9571 455.054 83.6386Z" stroke="url(#paint36_linear_2986_1356)" stroke-opacity="0.2"/>
<path opacity="0.974359" d="M460.163 83.3528C480.221 82.2726 500.886 80.5458 521.68 78.8082C526.073 78.441 530.473 78.0733 534.874 77.7112C560.108 75.6348 585.387 73.7393 609.892 73.1511C658.917 71.9744 704.762 76.0343 740.865 94.2843C758.904 103.403 771.081 114.219 779.17 126.146C787.26 138.075 791.282 151.147 792.958 164.809C794.635 178.475 793.963 192.716 792.676 206.974C792.207 212.158 791.657 217.349 791.109 222.514C790.153 231.534 789.206 240.475 788.718 249.162C786.013 297.304 777.627 345.457 724.484 383.19C667.622 423.563 586.951 458.047 495.176 457.48C450.964 457.207 415.232 445.134 381.505 429.529C368.249 423.396 355.311 416.721 342.283 410C338.73 408.167 335.17 406.33 331.596 404.5C314.921 395.965 297.934 387.58 279.836 380.391C257.195 371.399 231.087 363.909 204.41 356.777C197.295 354.875 190.14 352.998 182.999 351.125C163.356 345.973 143.818 340.849 125.507 335.296C100.539 327.725 77.8986 319.371 60.435 309.095C42.9684 298.817 30.7567 286.663 26.5089 271.519C22.2301 256.264 25.8289 241.771 35.0688 227.979C44.3151 214.178 59.1924 201.109 77.3977 188.747C113.808 164.024 163.397 142.214 207.463 123.051C276.214 93.1531 361.936 88.5871 448.666 83.9675C452.497 83.7634 456.33 83.5593 460.163 83.3528Z" stroke="url(#paint37_linear_2986_1356)" stroke-opacity="0.2"/>
<path d="M465.15 83.5745C485.282 83.0837 506.079 81.965 527.007 80.8393C531.429 80.6014 535.857 80.3632 540.286 80.1306C565.679 78.7967 591.101 77.6449 615.627 77.7758C664.695 78.0378 710.098 83.436 744.447 102.719C761.609 112.354 772.759 123.513 779.722 135.66C786.686 147.809 789.481 160.981 789.878 174.673C790.276 188.369 788.274 202.571 785.656 216.771C784.704 221.934 783.67 227.101 782.64 232.243C780.843 241.223 779.061 250.124 777.762 258.785C770.563 306.781 757.689 354.622 701.093 390.746C640.536 429.397 556.753 461.468 465.156 458.212C421.03 456.643 386.475 443.539 354.252 426.967C341.588 420.454 329.291 413.409 316.909 406.316C313.532 404.381 310.149 402.442 306.75 400.51C290.896 391.498 274.715 382.626 257.314 374.917C235.544 365.273 210.171 357.028 184.198 349.124C177.27 347.016 170.301 344.932 163.345 342.853C144.209 337.132 125.177 331.442 107.41 325.36C83.1833 317.067 61.3548 308.06 44.8752 297.287C28.3925 286.511 17.3339 274.016 14.5072 258.768C11.66 243.411 16.6074 229.044 27.1233 215.542C37.6465 202.031 53.7246 189.416 73.0601 177.605C111.731 153.982 163.289 133.656 209.086 115.811C280.537 87.9692 366.569 85.9223 453.611 83.8513C457.456 83.7598 461.303 83.6683 465.15 83.5745Z" stroke="url(#paint38_linear_2986_1356)" stroke-opacity="0.2"/>
<defs>
<linearGradient id="paint0_linear_2986_1356" x1="559.726" y1="398.28" x2="1016.82" y2="34.9235" gradientUnits="userSpaceOnUse">
<stop stop-color="#EECA16"/>
<stop offset="0.5" stop-color="#D3C831"/>
<stop offset="0.75" stop-color="#D87342"/>
<stop offset="0.875" stop-color="#3E1DB4"/>
<stop offset="1" stop-color="#DC211E"/>
</linearGradient>
<linearGradient id="paint1_linear_2986_1356" x1="540.556" y1="387.666" x2="1037.2" y2="47.2855" gradientUnits="userSpaceOnUse">
<stop stop-color="#EECA16"/>
<stop offset="0.5" stop-color="#D3C831"/>
<stop offset="0.75" stop-color="#D87342"/>
<stop offset="0.875" stop-color="#3E1DB4"/>
<stop offset="1" stop-color="#DC211E"/>
</linearGradient>
<linearGradient id="paint2_linear_2986_1356" x1="522.255" y1="376.865" x2="1058.36" y2="65.8647" gradientUnits="userSpaceOnUse">
<stop stop-color="#EECA16"/>
<stop offset="0.5" stop-color="#D3C831"/>
<stop offset="0.75" stop-color="#D87342"/>
<stop offset="0.875" stop-color="#3E1DB4"/>
<stop offset="1" stop-color="#DC211E"/>
</linearGradient>
<linearGradient id="paint3_linear_2986_1356" x1="504.839" y1="365.902" x2="1078.93" y2="91.2548" gradientUnits="userSpaceOnUse">
<stop stop-color="#EECA16"/>
<stop offset="0.5" stop-color="#D3C831"/>
<stop offset="0.75" stop-color="#D87342"/>
<stop offset="0.875" stop-color="#3E1DB4"/>
<stop offset="1" stop-color="#DC211E"/>
</linearGradient>
<linearGradient id="paint4_linear_2986_1356" x1="488.327" y1="354.804" x2="1097.29" y2="123.699" gradientUnits="userSpaceOnUse">
<stop stop-color="#EECA16"/>
<stop offset="0.5" stop-color="#D3C831"/>
<stop offset="0.75" stop-color="#D87342"/>
<stop offset="0.875" stop-color="#3E1DB4"/>
<stop offset="1" stop-color="#DC211E"/>
</linearGradient>
<linearGradient id="paint5_linear_2986_1356" x1="472.732" y1="343.597" x2="1111.59" y2="162.94" gradientUnits="userSpaceOnUse">
<stop stop-color="#EECA16"/>
<stop offset="0.5" stop-color="#D3C831"/>
<stop offset="0.75" stop-color="#D87342"/>
<stop offset="0.875" stop-color="#3E1DB4"/>
<stop offset="1" stop-color="#DC211E"/>
</linearGradient>
<linearGradient id="paint6_linear_2986_1356" x1="458.057" y1="332.309" x2="1119.95" y2="208.102" gradientUnits="userSpaceOnUse">
<stop stop-color="#EECA16"/>
<stop offset="0.5" stop-color="#D3C831"/>
<stop offset="0.75" stop-color="#D87342"/>
<stop offset="0.875" stop-color="#3E1DB4"/>
<stop offset="1" stop-color="#DC211E"/>
</linearGradient>
<linearGradient id="paint7_linear_2986_1356" x1="444.308" y1="320.966" x2="1120.77" y2="257.67" gradientUnits="userSpaceOnUse">
<stop stop-color="#EECA16"/>
<stop offset="0.5" stop-color="#D3C831"/>
<stop offset="0.75" stop-color="#D87342"/>
<stop offset="0.875" stop-color="#3E1DB4"/>
<stop offset="1" stop-color="#DC211E"/>
</linearGradient>
<linearGradient id="paint8_linear_2986_1356" x1="431.498" y1="309.594" x2="1112.95" y2="309.594" gradientUnits="userSpaceOnUse">
<stop stop-color="#EECA16"/>
<stop offset="0.5" stop-color="#D3C831"/>
<stop offset="0.75" stop-color="#D87342"/>
<stop offset="0.875" stop-color="#3E1DB4"/>
<stop offset="1" stop-color="#DC211E"/>
</linearGradient>
<linearGradient id="paint9_linear_2986_1356" x1="419.617" y1="298.224" x2="1096.08" y2="361.52" gradientUnits="userSpaceOnUse">
<stop stop-color="#EECA16"/>
<stop offset="0.5" stop-color="#D3C831"/>
<stop offset="0.75" stop-color="#D87342"/>
<stop offset="0.875" stop-color="#3E1DB4"/>
<stop offset="1" stop-color="#DC211E"/>
</linearGradient>
<linearGradient id="paint10_linear_2986_1356" x1="408.669" y1="286.881" x2="1070.56" y2="411.089" gradientUnits="userSpaceOnUse">
<stop stop-color="#EECA16"/>
<stop offset="0.5" stop-color="#D3C831"/>
<stop offset="0.75" stop-color="#D87342"/>
<stop offset="0.875" stop-color="#3E1DB4"/>
<stop offset="1" stop-color="#DC211E"/>
</linearGradient>
<linearGradient id="paint11_linear_2986_1356" x1="398.655" y1="275.592" x2="1037.51" y2="456.249" gradientUnits="userSpaceOnUse">
<stop stop-color="#EECA16"/>
<stop offset="0.5" stop-color="#D3C831"/>
<stop offset="0.75" stop-color="#D87342"/>
<stop offset="0.875" stop-color="#3E1DB4"/>
<stop offset="1" stop-color="#DC211E"/>
</linearGradient>
<linearGradient id="paint12_linear_2986_1356" x1="389.558" y1="264.386" x2="998.525" y2="495.49" gradientUnits="userSpaceOnUse">
<stop stop-color="#EECA16"/>
<stop offset="0.5" stop-color="#D3C831"/>
<stop offset="0.75" stop-color="#D87342"/>
<stop offset="0.875" stop-color="#3E1DB4"/>
<stop offset="1" stop-color="#DC211E"/>
</linearGradient>
<linearGradient id="paint13_linear_2986_1356" x1="381.372" y1="253.287" x2="955.467" y2="527.935" gradientUnits="userSpaceOnUse">
<stop stop-color="#EECA16"/>
<stop offset="0.5" stop-color="#D3C831"/>
<stop offset="0.75" stop-color="#D87342"/>
<stop offset="0.875" stop-color="#3E1DB4"/>
<stop offset="1" stop-color="#DC211E"/>
</linearGradient>
<linearGradient id="paint14_linear_2986_1356" x1="374.094" y1="242.324" x2="910.194" y2="553.325" gradientUnits="userSpaceOnUse">
<stop stop-color="#EECA16"/>
<stop offset="0.5" stop-color="#D3C831"/>
<stop offset="0.75" stop-color="#D87342"/>
<stop offset="0.875" stop-color="#3E1DB4"/>
<stop offset="1" stop-color="#DC211E"/>
</linearGradient>
<linearGradient id="paint15_linear_2986_1356" x1="367.702" y1="231.524" x2="864.349" y2="571.904" gradientUnits="userSpaceOnUse">
<stop stop-color="#EECA16"/>
<stop offset="0.5" stop-color="#D3C831"/>
<stop offset="0.75" stop-color="#D87342"/>
<stop offset="0.875" stop-color="#3E1DB4"/>
<stop offset="1" stop-color="#DC211E"/>
</linearGradient>
<linearGradient id="paint16_linear_2986_1356" x1="362.178" y1="220.91" x2="819.277" y2="584.266" gradientUnits="userSpaceOnUse">
<stop stop-color="#EECA16"/>
<stop offset="0.5" stop-color="#D3C831"/>
<stop offset="0.75" stop-color="#D87342"/>
<stop offset="0.875" stop-color="#3E1DB4"/>
<stop offset="1" stop-color="#DC211E"/>
</linearGradient>
<linearGradient id="paint17_linear_2986_1356" x1="357.512" y1="210.509" x2="775.992" y2="591.207" gradientUnits="userSpaceOnUse">
<stop stop-color="#EECA16"/>
<stop offset="0.5" stop-color="#D3C831"/>
<stop offset="0.75" stop-color="#D87342"/>
<stop offset="0.875" stop-color="#3E1DB4"/>
<stop offset="1" stop-color="#DC211E"/>
</linearGradient>
<linearGradient id="paint18_linear_2986_1356" x1="353.679" y1="200.345" x2="735.178" y2="593.597" gradientUnits="userSpaceOnUse">
<stop stop-color="#EECA16"/>
<stop offset="0.5" stop-color="#D3C831"/>
<stop offset="0.75" stop-color="#D87342"/>
<stop offset="0.875" stop-color="#3E1DB4"/>
<stop offset="1" stop-color="#DC211E"/>
</linearGradient>
<linearGradient id="paint19_linear_2986_1356" x1="350.651" y1="190.444" x2="697.243" y2="592.304" gradientUnits="userSpaceOnUse">
<stop stop-color="#EECA16"/>
<stop offset="0.5" stop-color="#D3C831"/>
<stop offset="0.75" stop-color="#D87342"/>
<stop offset="0.875" stop-color="#3E1DB4"/>
<stop offset="1" stop-color="#DC211E"/>
</linearGradient>
<linearGradient id="paint20_linear_2986_1356" x1="348.41" y1="180.827" x2="662.393" y2="588.12" gradientUnits="userSpaceOnUse">
<stop stop-color="#EECA16"/>
<stop offset="0.5" stop-color="#D3C831"/>
<stop offset="0.75" stop-color="#D87342"/>
<stop offset="0.875" stop-color="#3E1DB4"/>
<stop offset="1" stop-color="#DC211E"/>
</linearGradient>
<linearGradient id="paint21_linear_2986_1356" x1="346.92" y1="171.518" x2="630.662" y2="581.752" gradientUnits="userSpaceOnUse">
<stop stop-color="#EECA16"/>
<stop offset="0.5" stop-color="#D3C831"/>
<stop offset="0.75" stop-color="#D87342"/>
<stop offset="0.875" stop-color="#3E1DB4"/>
<stop offset="1" stop-color="#DC211E"/>
</linearGradient>
<linearGradient id="paint22_linear_2986_1356" x1="346.158" y1="162.537" x2="601.986" y2="573.804" gradientUnits="userSpaceOnUse">
<stop stop-color="#EECA16"/>
<stop offset="0.5" stop-color="#D3C831"/>
<stop offset="0.75" stop-color="#D87342"/>
<stop offset="0.875" stop-color="#3E1DB4"/>
<stop offset="1" stop-color="#DC211E"/>
</linearGradient>
<linearGradient id="paint23_linear_2986_1356" x1="346.09" y1="153.907" x2="576.219" y2="564.783" gradientUnits="userSpaceOnUse">
<stop stop-color="#EECA16"/>
<stop offset="0.5" stop-color="#D3C831"/>
<stop offset="0.75" stop-color="#D87342"/>
<stop offset="0.875" stop-color="#3E1DB4"/>
<stop offset="1" stop-color="#DC211E"/>
</linearGradient>
<linearGradient id="paint24_linear_2986_1356" x1="346.686" y1="145.646" x2="553.18" y2="555.103" gradientUnits="userSpaceOnUse">
<stop stop-color="#EECA16"/>
<stop offset="0.5" stop-color="#D3C831"/>
<stop offset="0.75" stop-color="#D87342"/>
<stop offset="0.875" stop-color="#3E1DB4"/>
<stop offset="1" stop-color="#DC211E"/>
</linearGradient>
<linearGradient id="paint25_linear_2986_1356" x1="347.902" y1="137.774" x2="532.648" y2="545.105" gradientUnits="userSpaceOnUse">
<stop stop-color="#EECA16"/>
<stop offset="0.5" stop-color="#D3C831"/>
<stop offset="0.75" stop-color="#D87342"/>
<stop offset="0.875" stop-color="#3E1DB4"/>
<stop offset="1" stop-color="#DC211E"/>
</linearGradient>
<linearGradient id="paint26_linear_2986_1356" x1="349.707" y1="130.309" x2="514.413" y2="535.06" gradientUnits="userSpaceOnUse">
<stop stop-color="#EECA16"/>
<stop offset="0.5" stop-color="#D3C831"/>
<stop offset="0.75" stop-color="#D87342"/>
<stop offset="0.875" stop-color="#3E1DB4"/>
<stop offset="1" stop-color="#DC211E"/>
</linearGradient>
<linearGradient id="paint27_linear_2986_1356" x1="352.06" y1="123.267" x2="498.251" y2="525.188" gradientUnits="userSpaceOnUse">
<stop stop-color="#EECA16"/>
<stop offset="0.5" stop-color="#D3C831"/>
<stop offset="0.75" stop-color="#D87342"/>
<stop offset="0.875" stop-color="#3E1DB4"/>
<stop offset="1" stop-color="#DC211E"/>
</linearGradient>
<linearGradient id="paint28_linear_2986_1356" x1="354.925" y1="116.664" x2="483.949" y2="515.661" gradientUnits="userSpaceOnUse">
<stop stop-color="#EECA16"/>
<stop offset="0.5" stop-color="#D3C831"/>
<stop offset="0.75" stop-color="#D87342"/>
<stop offset="0.875" stop-color="#3E1DB4"/>
<stop offset="1" stop-color="#DC211E"/>
</linearGradient>
<linearGradient id="paint29_linear_2986_1356" x1="358.254" y1="110.513" x2="471.295" y2="506.617" gradientUnits="userSpaceOnUse">
<stop stop-color="#EECA16"/>
<stop offset="0.5" stop-color="#D3C831"/>
<stop offset="0.75" stop-color="#D87342"/>
<stop offset="0.875" stop-color="#3E1DB4"/>
<stop offset="1" stop-color="#DC211E"/>
</linearGradient>
<linearGradient id="paint30_linear_2986_1356" x1="362.009" y1="104.828" x2="460.095" y2="498.164" gradientUnits="userSpaceOnUse">
<stop stop-color="#EECA16"/>
<stop offset="0.5" stop-color="#D3C831"/>
<stop offset="0.75" stop-color="#D87342"/>
<stop offset="0.875" stop-color="#3E1DB4"/>
<stop offset="1" stop-color="#DC211E"/>
</linearGradient>
<linearGradient id="paint31_linear_2986_1356" x1="366.142" y1="99.6218" x2="450.157" y2="490.388" gradientUnits="userSpaceOnUse">
<stop stop-color="#EECA16"/>
<stop offset="0.5" stop-color="#D3C831"/>
<stop offset="0.75" stop-color="#D87342"/>
<stop offset="0.875" stop-color="#3E1DB4"/>
<stop offset="1" stop-color="#DC211E"/>
</linearGradient>
<linearGradient id="paint32_linear_2986_1356" x1="370.608" y1="94.9044" x2="441.3" y2="483.356" gradientUnits="userSpaceOnUse">
<stop stop-color="#EECA16"/>
<stop offset="0.5" stop-color="#D3C831"/>
<stop offset="0.75" stop-color="#D87342"/>
<stop offset="0.875" stop-color="#3E1DB4"/>
<stop offset="1" stop-color="#DC211E"/>
</linearGradient>
<linearGradient id="paint33_linear_2986_1356" x1="375.366" y1="90.6839" x2="433.361" y2="477.119" gradientUnits="userSpaceOnUse">
<stop stop-color="#EECA16"/>
<stop offset="0.5" stop-color="#D3C831"/>
<stop offset="0.75" stop-color="#D87342"/>
<stop offset="0.875" stop-color="#3E1DB4"/>
<stop offset="1" stop-color="#DC211E"/>
</linearGradient>
<linearGradient id="paint34_linear_2986_1356" x1="380.368" y1="86.9673" x2="426.173" y2="471.716" gradientUnits="userSpaceOnUse">
<stop stop-color="#EECA16"/>
<stop offset="0.5" stop-color="#D3C831"/>
<stop offset="0.75" stop-color="#D87342"/>
<stop offset="0.875" stop-color="#3E1DB4"/>
<stop offset="1" stop-color="#DC211E"/>
</linearGradient>
<linearGradient id="paint35_linear_2986_1356" x1="385.556" y1="83.7645" x2="419.569" y2="467.179" gradientUnits="userSpaceOnUse">
<stop stop-color="#EECA16"/>
<stop offset="0.5" stop-color="#D3C831"/>
<stop offset="0.75" stop-color="#D87342"/>
<stop offset="0.875" stop-color="#3E1DB4"/>
<stop offset="1" stop-color="#DC211E"/>
</linearGradient>
<linearGradient id="paint36_linear_2986_1356" x1="390.895" y1="81.0778" x2="413.409" y2="463.529" gradientUnits="userSpaceOnUse">
<stop stop-color="#EECA16"/>
<stop offset="0.5" stop-color="#D3C831"/>
<stop offset="0.75" stop-color="#D87342"/>
<stop offset="0.875" stop-color="#3E1DB4"/>
<stop offset="1" stop-color="#DC211E"/>
</linearGradient>
<linearGradient id="paint37_linear_2986_1356" x1="396.331" y1="78.9105" x2="407.54" y2="460.78" gradientUnits="userSpaceOnUse">
<stop stop-color="#EECA16"/>
<stop offset="0.5" stop-color="#D3C831"/>
<stop offset="0.75" stop-color="#D87342"/>
<stop offset="0.875" stop-color="#3E1DB4"/>
<stop offset="1" stop-color="#DC211E"/>
</linearGradient>
<linearGradient id="paint38_linear_2986_1356" x1="401.821" y1="77.2656" x2="401.821" y2="458.94" gradientUnits="userSpaceOnUse">
<stop stop-color="#EECA16"/>
<stop offset="0.5" stop-color="#D3C831"/>
<stop offset="0.75" stop-color="#D87342"/>
<stop offset="0.875" stop-color="#3E1DB4"/>
<stop offset="1" stop-color="#DC211E"/>
</linearGradient>
</defs>
</svg>
