<svg width="32" height="32" viewBox="0 0 32 32" fill="none" xmlns="http://www.w3.org/2000/svg">
<g clip-path="url(#clip0_2522_43)">
<path fill-rule="evenodd" clip-rule="evenodd" d="M31.68 9.55624C31.68 9.55624 31.367 7.33549 30.408 6.35774C29.191 5.07374 27.827 5.06774 27.202 4.99324C22.724 4.66699 16.007 4.66699 16.007 4.66699H15.993C15.993 4.66699 9.276 4.66699 4.798 4.99324C4.172 5.06774 2.809 5.07374 1.591 6.35774C0.632 7.33574 0.32 9.55624 0.32 9.55624C0.32 9.55624 0 12.1647 0 14.772V17.2172C0 19.8255 0.32 22.433 0.32 22.433C0.32 22.433 0.632 24.6537 1.591 25.6315C2.809 26.9155 4.408 26.8752 5.12 27.0092C7.68 27.257 16 27.3335 16 27.3335C16 27.3335 22.724 27.3235 27.202 26.9972C27.827 26.9217 29.191 26.9157 30.408 25.6317C31.367 24.6537 31.68 22.4332 31.68 22.4332C31.68 22.4332 32 19.8257 32 17.2172V14.772C32 12.1647 31.68 9.55624 31.68 9.55624ZM12.696 20.1802L12.695 11.1255L21.341 15.6685L12.696 20.1802Z" fill="#CE1312"/>
</g>
<defs>
<clipPath id="clip0_2522_43">
<rect width="32" height="32" fill="white"/>
</clipPath>
</defs>
</svg>
